<svg width="491" height="373" viewBox="0 0 491 373" fill="none" xmlns="http://www.w3.org/2000/svg">
<path d="M323.01 0C333.918 3.81766 340.736 20.6015 345.76 30.3125C352.259 43.8288 355.961 58.0512 355.948 73.0625C355.948 73.848 355.949 74.6335 355.95 75.4429C355.894 81.5549 355.227 87.3655 353.76 93.3125C354.704 92.9142 355.647 92.5159 356.62 92.1055C380.858 82.0331 380.858 82.0331 389.76 84.3125C391.995 85.7617 391.995 85.7617 393.76 88.3125C394.244 91.4118 394.137 94.4356 394.01 97.5625C393.992 98.403 393.974 99.2434 393.956 100.109C393.909 102.178 393.837 104.245 393.76 106.312C394.822 105.758 395.885 105.204 396.979 104.633C398.406 103.901 399.833 103.169 401.26 102.438C401.956 102.073 402.652 101.708 403.37 101.332C404.066 100.978 404.762 100.623 405.479 100.258C406.107 99.9331 406.736 99.6084 407.383 99.2739C413.568 96.7723 419.255 96.0348 425.881 96.2227C427.409 96.2431 428.937 96.2633 430.465 96.2832C432.833 96.3266 435.2 96.375 437.567 96.429C453.181 96.9593 453.181 96.9593 466.448 89.5625C470.351 86.3348 470.351 86.3348 474.198 86.125C477.239 87.5343 477.578 88.2627 478.76 91.3125C482.223 118.609 472.428 154.189 455.76 175.75C454.772 176.948 453.777 178.14 452.76 179.312C454.647 179.459 454.647 179.459 456.573 179.609C465.14 180.336 473.532 181.213 481.885 183.312C482.553 183.478 483.221 183.644 483.909 183.815C486.86 184.604 488.563 185.116 490.76 187.312C491.378 193.497 490.299 197.276 486.885 202.5C486.48 203.144 486.075 203.787 485.658 204.45C478.831 215.108 470.866 224.731 462.134 233.872C460.794 235.277 459.47 236.699 458.147 238.121C439.698 257.39 416.021 270.031 390.049 275.551C386.929 275.968 386.929 275.968 385.76 277.312C386.392 277.751 387.024 278.189 387.674 278.641C407.112 292.421 425.987 308.992 433.76 332.312C434.451 339.451 434.451 339.451 431.612 342.992C418.35 353.783 383.739 349.078 367.382 347.585C338.39 344.567 304.612 338.102 281.659 318.52C279.874 317.145 279.874 317.145 277.905 317.32C274.715 318.796 272.144 320.972 269.448 323.188C268.191 324.195 266.934 325.2 265.674 326.203C265.028 326.719 264.381 327.236 263.714 327.768C253.551 335.802 243.022 342.917 231.76 349.312C231.173 349.654 230.587 349.995 229.982 350.347C195.573 370.29 153.352 378.455 114.514 368.246C102.917 364.941 90.5142 360.474 80.7603 353.312C79.196 350.184 79.404 347.756 79.7603 344.312C82.6157 340.743 86.102 339.817 90.3228 338.5C105.634 333.653 117.368 323.89 125.76 310.312C126.09 309.652 126.42 308.993 126.76 308.312C125.502 307.961 124.244 307.609 122.948 307.246C111.794 304.058 101.193 300.395 90.7603 295.312C89.6194 294.757 88.4786 294.201 87.3032 293.629C67.7993 283.611 52.6994 268.966 41.1328 250.514C32.2031 236.407 20.6842 224.475 6.35401 215.867C1.11212 212.489 1.11212 212.489 0.0922867 209.078C-0.0646451 206.482 -0.120369 204.771 0.760255 202.312C13.9215 189.421 36.826 186.675 54.2295 186.767C69.0537 187.193 83.4221 190.823 96.7603 197.312C96.6765 196.721 96.5927 196.129 96.5063 195.52C96.3536 194.334 96.3536 194.334 96.1978 193.125C96.0933 192.348 95.9889 191.57 95.8813 190.77C95.7603 188.312 95.7603 188.312 96.479 185.793C97.0538 183.199 97.0538 183.199 95.1704 181.094C94.3957 180.341 93.621 179.588 92.8228 178.812C79.3524 164.672 72.3842 146.841 72.4553 127.433C72.6331 120.248 72.89 111.635 77.7446 106.016C82.2797 102.184 87.0657 102.857 92.7603 103.312C113.609 106.813 133.329 117.235 149.76 130.312C150.159 129.337 150.557 128.361 150.967 127.355C151.502 126.07 152.037 124.785 152.573 123.5C152.834 122.857 153.095 122.215 153.364 121.553C156.041 115.174 156.041 115.174 158.76 113.312C162.323 113.438 162.323 113.438 165.76 114.312C167.857 117.458 168.28 119.327 168.885 123C169.053 123.994 169.22 124.988 169.393 126.012C169.514 126.771 169.635 127.53 169.76 128.312C170.09 128.312 170.42 128.312 170.76 128.312C170.544 127.11 170.544 127.11 170.323 125.883C166.014 99.4925 169.653 74.7927 184.711 52.4746C191.112 42.9588 197.666 31.8667 196.51 20C195.974 16.4741 195.974 16.4741 194.635 14.1875C193.295 11.3157 193.919 9.29009 194.76 6.3125C198.055 4.11568 198.939 3.78099 202.76 4.3125C205.522 5.96484 205.522 5.96484 208.448 8.25C208.972 8.65823 209.496 9.06646 210.036 9.48706C215.16 13.5282 220.025 17.8226 224.76 22.3125C225.235 22.7543 225.709 23.1962 226.198 23.6514C241.851 38.2956 252.806 55.6281 258.76 76.3125C261.795 72.1032 262.389 68.1694 262.823 63.125C263.502 55.5706 263.502 55.5706 265.76 53.3125C270.053 52.8265 272.081 52.8501 275.698 55.3125C276.378 55.9725 277.059 56.6325 277.76 57.3125C278.162 56.4772 278.162 56.4772 278.573 55.625C283.135 46.7398 288.878 41.2487 297.448 36.1875C306.75 30.6296 310.34 24.6228 313.76 14.3125C314.336 11.4031 314.792 8.53815 315.108 5.58984C316.311 1.39036 318.873 0.397823 323.01 0ZM324.76 18.3125C324.481 19.0743 324.201 19.8362 323.913 20.6211C319.299 32.5048 313.242 39.995 302.499 46.7305C295.131 51.3963 289.483 56.312 286.26 64.625C284.471 73.2689 289.567 80.371 293.467 87.7686C299.857 100.341 304.043 113.514 306.76 127.312C307.647 126.549 308.534 125.786 309.448 125C310.087 124.455 310.727 123.909 311.385 123.348C313.164 121.823 314.933 120.287 316.698 118.746C317.78 117.809 318.863 116.872 319.948 115.938C320.502 115.458 321.057 114.978 321.628 114.483C325.332 111.342 329.136 108.8 333.323 106.312C339.499 102.333 341.197 98.326 342.76 91.3125C342.979 90.6177 343.199 89.9229 343.424 89.207C348.934 70.2161 342.641 48.232 333.698 31.293C329.961 24.2571 329.961 24.2571 324.76 18.3125ZM208.76 24.3125C208.564 25.2097 208.368 26.1069 208.167 27.0312C204.971 40.3657 199.549 51.7722 191.424 62.8281C178.527 82.0838 177.701 105.109 181.913 127.148C182.193 128.537 182.475 129.925 182.76 131.312C183.102 133.033 183.102 133.033 183.452 134.789C184.674 140.34 184.674 140.34 188.323 144.5C190.648 145.418 190.648 145.418 192.76 145.312C192.979 144.609 193.199 143.905 193.424 143.18C195.715 136.047 198.425 129.264 201.491 122.441C204.103 116.003 204.064 109.593 204.381 102.711C204.76 99.3125 204.76 99.3125 206.76 96.3125C218.247 94.8061 228.881 101.072 238.76 106.312C239.232 105.1 239.232 105.1 239.713 103.863C240.141 102.795 240.569 101.726 241.01 100.625C241.428 99.5693 241.846 98.5135 242.276 97.4258C243.76 94.3125 243.76 94.3125 245.905 91.6406C248.082 88.9091 248.281 87.1035 248.069 83.6523C244.97 60.1585 230.135 43.1302 213.85 27.1016C213.302 26.5623 212.754 26.0229 212.19 25.4673C210.807 24.103 210.807 24.103 208.76 24.3125ZM272.76 73.3125C272.375 74.2213 272.375 74.2213 271.983 75.1484C268.674 82.3898 264.243 87.6041 258.76 93.3125C253.016 99.3221 249.836 104.15 248.135 112.312C248.969 116.313 251.011 118.068 253.756 121.008C265.569 134.593 268.952 152.36 268.885 169.812C268.891 171.323 268.891 171.323 268.897 172.863C268.89 178.12 268.627 183.113 267.76 188.312C267.194 193.607 267.194 193.607 269.26 198.312C269.755 198.643 270.25 198.972 270.76 199.312C278.533 194.283 282.025 184.941 286.073 176.938C286.422 176.248 286.772 175.558 287.133 174.847C289.013 171.136 289.013 171.136 290.175 167.166C290.368 166.554 290.561 165.943 290.76 165.312C293.76 164.125 293.76 164.125 296.76 163.312C299.801 160.272 298.734 152.482 298.76 148.312C298.178 124.828 290.292 103.572 279.51 83C279.181 82.3711 278.852 81.7422 278.513 81.0942C276.897 78.1017 275.361 75.536 272.76 73.3125ZM317.627 132.426C316.67 133.386 315.714 134.348 314.76 135.312C314.209 135.824 313.658 136.335 313.091 136.862C309.002 140.988 308.066 144.138 307.926 149.904C307.933 150.802 307.94 151.7 307.948 152.625C307.923 154.413 307.896 156.201 307.866 157.988C307.86 158.868 307.854 159.747 307.848 160.653C307.759 163.349 307.459 165.955 307.112 168.629C306.669 172.71 307.033 175.22 308.948 178.938C315.453 193.176 316.71 207.878 317.76 223.312C346.827 208.306 364.548 180.216 374.672 149.692C379.958 132.569 383.054 114.243 382.76 96.3125C358.597 96.3125 334.191 116.79 317.627 132.426ZM214.76 107.312C214.685 108.149 214.611 108.986 214.534 109.848C213.436 119.569 210.586 127.396 206.76 136.312C203.264 144.627 203.264 144.627 203.76 153.312C205.797 155.565 207.983 157.39 210.358 159.281C213.792 162.185 216.249 165.609 218.76 169.312C222.002 166.267 224.564 163.201 227.135 159.562C229.666 156.242 230.386 155.431 234.51 154.125C237.76 154.312 237.76 154.312 240.76 156.312C241.499 158.379 241.499 158.379 242.073 160.875C244.68 170.188 249.72 176.109 257.76 181.312C260.396 178.677 259.072 171.406 259.077 167.873C258.836 150.197 253.148 134.679 240.62 122.008C234.326 116.075 223.905 107.312 214.76 107.312ZM462.51 105.25C457.094 107.343 451.914 107.404 446.159 107.27C444.683 107.247 443.208 107.226 441.733 107.205C439.442 107.168 437.152 107.125 434.862 107.066C422.079 106.749 411.44 108.047 400.76 115.75C399.708 116.491 398.657 117.232 397.573 117.996C390.693 123.662 389.652 128.952 387.948 137.438C382.815 161.133 373.647 181.506 359.76 201.312C360.42 201.643 361.08 201.972 361.76 202.312C372.769 195.34 382.339 187.21 390.436 176.949C392.76 174.312 392.76 174.312 395.948 173.812C398.76 174.312 398.76 174.312 400.76 176.312C401.061 178.678 401.255 181.057 401.385 183.438C401.46 184.719 401.535 186 401.612 187.32C401.661 188.308 401.71 189.295 401.76 190.312C402.309 190.146 402.857 189.98 403.422 189.809C405.052 189.316 406.683 188.824 408.314 188.332C410.16 187.775 412.006 187.217 413.851 186.656C418.549 185.238 423.231 183.931 428.01 182.812C439.394 179.722 447.01 169.536 452.885 159.875C461.241 145.109 467.084 125.342 466.823 108.375C466.814 107.603 466.805 106.831 466.795 106.035C466.784 105.467 466.772 104.898 466.76 104.312C464.662 104.184 464.662 104.184 462.51 105.25ZM85.7603 114.312C81.3154 128.092 83.4037 141.856 89.3853 154.84C94.0323 163.898 100.447 171.291 107.76 178.312C108.685 179.217 109.609 180.122 110.561 181.055C114.593 183.9 118.025 184.581 122.823 185.375C124.509 185.689 126.193 186.008 127.877 186.332C128.702 186.49 129.527 186.648 130.376 186.811C135.619 187.914 140.689 189.601 145.76 191.312C145.599 190.101 145.438 188.889 145.272 187.641C144.588 181.451 144.576 175.284 144.573 169.062C144.561 167.924 144.548 166.786 144.536 165.613C144.522 157.674 145.335 150.12 146.76 142.312C130.391 129.73 107.654 112.9 85.7603 114.312ZM159.76 136.312C153.357 158.226 150.806 179.722 161.323 200.938C169.333 214.637 182.422 225.741 196.76 232.312C197.42 232.312 198.08 232.312 198.76 232.312C198.825 231.73 198.89 231.147 198.956 230.547C200.527 216.826 202.118 202.992 208.663 190.605C212.205 184.233 212.205 184.233 211.827 177.242C210.028 174.302 208.082 171.855 205.76 169.312C205.236 168.668 204.711 168.023 204.17 167.359C196.814 159.048 185.648 154.079 175.874 149.102C170.809 146.486 166.527 143.584 163.01 139.062C162.268 138.155 161.525 137.248 160.76 136.312C160.43 136.312 160.1 136.312 159.76 136.312ZM232.76 169.312C218.272 189.864 206.898 213.23 210.448 239.062C213.187 254.034 220.605 267.884 231.76 278.312C233.245 278.808 233.245 278.808 234.76 279.312C234.82 278.476 234.82 278.476 234.88 277.623C236.646 253.884 242.271 230.286 259.323 212.5C260.783 210.929 260.783 210.929 261.76 209.312C260.854 198.888 249.054 188.509 242.01 181.625C238.387 177.901 235.635 173.625 232.76 169.312ZM296.76 178.312C296.484 178.887 296.207 179.461 295.922 180.053C294.647 182.686 293.36 185.312 292.073 187.938C291.42 189.293 291.42 189.293 290.754 190.676C287.457 197.368 284.057 202.692 278.135 207.375C261.439 221.744 247.615 244.027 245.76 266.312C245.625 270.985 245.637 275.64 245.76 280.312C257.746 284.308 270.939 283.412 282.307 278.129C293.767 272 299.844 261.463 303.694 249.383C309.884 227.523 309.164 200.539 298.713 180.016C298.399 179.454 298.084 178.892 297.76 178.312C297.43 178.312 297.1 178.312 296.76 178.312ZM407.658 199.589C405.932 200.247 404.177 200.825 402.42 201.395C398.286 204.376 397.965 208.187 396.885 213C394.362 222.911 390.823 231.454 385.76 240.312C385.206 241.305 384.652 242.298 384.081 243.32C380.175 249.88 375.365 255.293 370.116 260.781C367.671 263.273 367.671 263.273 365.76 266.312C396.439 267.589 422.417 254.662 444.885 234.875C446.518 233.363 448.143 231.842 449.76 230.312C450.632 229.506 451.503 228.699 452.401 227.867C462.543 218.16 471.466 206.902 477.76 194.312C476.75 194.003 475.739 193.694 474.698 193.375C474.129 193.201 473.561 193.027 472.975 192.848C451.444 187.645 427.995 191.807 407.658 199.589ZM107.76 193.312C110.299 214.864 124.736 234.524 141.198 247.812C156.79 259.948 174.601 267.568 193.573 272.625C194.528 272.88 195.482 273.135 196.466 273.397C202.551 274.946 208.496 275.879 214.76 276.312C214.397 275.681 214.033 275.049 213.659 274.398C204.055 257.309 204.055 257.309 202.073 248.129C200.163 244.03 196.998 243.142 193.01 241.562C178.925 235.448 164.809 226.136 156.885 212.625C149.359 200.738 131.991 197.391 119.135 194.5C115.258 193.682 111.724 193.173 107.76 193.312ZM388.76 194.312C387.687 195.448 386.627 196.597 385.573 197.75C375.435 207.835 363.354 213.066 350.263 218.331C341.099 222.032 332.058 226.051 324.323 232.312C323.54 232.931 322.758 233.55 321.952 234.188C317.331 238.668 315.346 242.958 314.01 249.188C312.596 255.114 310.552 260.429 307.823 265.875C307.499 266.529 307.175 267.183 306.841 267.857C304.606 272.169 301.98 275.678 298.76 279.312C311.572 283.261 331.268 274.304 342.663 268.312C364.748 256.07 379.26 236.224 386.76 212.312C388.431 206.307 389.966 200.579 389.76 194.312C389.43 194.312 389.1 194.312 388.76 194.312ZM14.7603 206.312C17.7847 209.539 20.9529 212.287 24.4478 215C35.9027 224.093 44.5362 234.796 52.4905 246.993C69.3307 272.783 95.2719 288.6 124.76 296.312C126.512 296.792 126.512 296.792 128.299 297.281C137.293 299.361 146.169 299.619 155.385 299.688C156.588 299.701 157.791 299.715 159.031 299.73C174.894 299.646 189.244 295.607 202.76 287.312C202.76 286.652 202.76 285.993 202.76 285.312C202.168 285.173 201.576 285.033 200.966 284.889C175.451 278.773 152.112 270.15 131.76 253.312C130.973 252.701 130.185 252.09 129.374 251.461C120.28 244.049 112.728 233.849 107.788 223.244C103.518 214.107 97.8097 210.095 88.7603 206.312C88.088 206.026 87.4158 205.739 86.7231 205.443C75.1556 200.594 64.255 197.916 51.6353 197.938C50.1345 197.94 50.1345 197.94 48.6035 197.942C36.4845 198.141 25.6405 200.872 14.7603 206.312ZM335.646 282.433C315.734 291.719 292.265 291.253 270.76 292.312C271.947 297.799 275.492 299.891 279.76 303.312C280.572 303.994 281.384 304.676 282.221 305.379C321.961 337.205 374.358 339.51 422.76 335.312C412.545 312.178 395.594 297.158 374.76 283.312C373.756 282.633 372.752 281.954 371.717 281.254C358.79 273.291 348.259 276.269 335.646 282.433ZM206.76 297.312C194.028 305.395 178.051 309.47 163.077 309.41C162.376 309.409 161.676 309.407 160.954 309.406C158.744 309.4 156.533 309.388 154.323 309.375C152.813 309.37 151.303 309.365 149.793 309.361C146.116 309.35 142.438 309.333 138.76 309.312C138.177 310.413 138.177 310.413 137.582 311.536C128.311 328.822 115.302 341.412 96.7603 348.312C105.719 358.421 128.313 360.649 141.275 361.472C188.073 363.585 228.329 341.889 263.76 313.312C264.715 312.589 265.671 311.866 266.655 311.121C267.35 310.524 268.044 309.927 268.76 309.312C268.76 308.652 268.76 307.993 268.76 307.312C267.351 306.178 265.937 305.049 264.506 303.941C262.482 302.053 261.249 300.017 259.76 297.688C255.908 292.681 252.234 291.743 246.112 290.832C245.095 290.715 245.095 290.715 244.058 290.596C241.41 290.269 238.791 289.823 236.159 289.387C222.673 287.402 216.822 287.796 206.76 297.312Z" fill="url(#paint0_linear_178_37)"/>
<defs>
<linearGradient id="paint0_linear_178_37" x1="245.463" y1="0" x2="245.463" y2="372.653" gradientUnits="userSpaceOnUse">
<stop stop-color="#ECB8D0"/>
<stop offset="0.905" stop-color="#5E3A8F"/>
</linearGradient>
</defs>
</svg>
