<svg width="133" height="48" viewBox="0 0 133 48" fill="none" xmlns="http://www.w3.org/2000/svg">
<path d="M54.9688 1.53125L56.375 2.8125C54.6875 5.95833 51.7917 7.53125 47.6875 7.53125C47.1875 7.53125 46.4583 7.48958 45.5 7.40625C43.0625 10.2188 41.5417 14.4583 40.9375 20.125C40.8125 21.3125 40.7396 22.4479 40.7188 23.5312L48.8438 23.2188L46.6562 25.9062H40.5938C39.9896 34.3021 36.0208 40.375 28.6875 44.125C24.4792 46.2708 19.6771 47.3438 14.2812 47.3438C10.9688 47.3438 8 46.6979 5.375 45.4062C4.04167 44.7604 2.96875 43.875 2.15625 42.75C1.36458 41.625 0.96875 40.2812 0.96875 38.7188C0.96875 37.1562 1.29167 35.7604 1.9375 34.5312C2.58333 33.3021 3.39583 32.3542 4.375 31.6875C5.35417 31 6.58333 30.4583 8.0625 30.0625C10.3958 29.4167 13.3646 29.0938 16.9688 29.0938C14.6146 26.0104 13.4375 22.8125 13.4375 19.5C13.4375 17.0833 14.0312 14.7292 15.2188 12.4375C16.4062 10.1458 17.9688 8.16667 19.9062 6.5C21.8646 4.8125 24.1562 3.46875 26.7812 2.46875C29.4271 1.44792 31.8854 0.9375 34.1562 0.9375C36.4479 0.9375 39.3229 1.38542 42.7812 2.28125C46.2604 3.17708 48.8125 3.625 50.4375 3.625C52.0625 3.625 53.5729 2.92708 54.9688 1.53125ZM5.375 35.4688C4.91667 36.4479 4.6875 37.5417 4.6875 38.75C4.6875 39.9583 5.02083 41 5.6875 41.875C6.35417 42.7292 7.20833 43.3958 8.25 43.875C10.3125 44.8125 12.5833 45.2812 15.0625 45.2812C17.5417 45.2812 19.8958 44.9375 22.125 44.25C24.3542 43.5417 26.3542 42.4375 28.125 40.9375C31.7917 37.8542 34.0833 32.8229 35 25.8438H28.2812L29.5312 23.8438L35.2188 23.5312C35.5104 20.8854 36.0312 18.6875 36.7812 16.9375C37.5312 15.1875 38.1562 13.8333 38.6562 12.875C39.1771 11.9167 39.6875 11.0833 40.1875 10.375C41.0208 9.16667 41.8958 8.03125 42.8125 6.96875C39.625 5.63542 36.5833 4.96875 33.6875 4.96875C30.8125 4.96875 28.375 5.27083 26.375 5.875C24.375 6.47917 22.5729 7.36458 20.9688 8.53125C19.3646 9.67708 18.0938 11.1979 17.1562 13.0938C16.2188 14.9896 15.75 17.1458 15.75 19.5625C15.75 21.9375 16.1146 23.7917 16.8438 25.125C17.1354 25.6458 17.3854 26.0938 17.5938 26.4688C17.8021 26.8438 18.1458 27.2708 18.625 27.75C19.125 28.2083 19.5104 28.5729 19.7812 28.8438C20.0729 29.1146 20.5417 29.4896 21.1875 29.9688C22.0417 30.5729 22.8125 31.1042 23.5 31.5625C24.1875 32.0208 24.5521 32.2708 24.5938 32.3125C24.6354 32.3333 24.6771 32.3542 24.7188 32.375L23.8125 33.5312C20.4167 31.8646 17.4896 31.0312 15.0312 31.0312C10.0104 31.0312 6.79167 32.5104 5.375 35.4688ZM58 4.4375H63.0625C62.1667 5.97917 60.7917 9.40625 58.9375 14.7188C57.0833 20.0104 55.3854 25.3438 53.8438 30.7188C52.3229 36.0729 51.5625 39.3542 51.5625 40.5625C51.5625 41.75 51.7083 42.3438 52 42.3438C52.875 42.3438 54.2396 41.0208 56.0938 38.375L57.4062 39.625C56.4896 41.2083 55.5 42.5417 54.4375 43.625C52.5625 45.5417 51.0417 46.5 49.875 46.5C47.75 46.5 46.6875 45.2188 46.6875 42.6562C46.6875 38.8438 47.9479 32.8333 50.4688 24.625C53.0104 16.4167 55.5208 9.6875 58 4.4375ZM64.8125 39.8438C64.9375 42.2396 66.5521 43.4375 69.6562 43.4375C70.8021 43.4375 71.9896 43.1146 73.2188 42.4688C74.4688 41.8021 75.4792 41.0208 76.25 40.125L77.5938 41C75.8646 43.8958 73.1042 45.6667 69.3125 46.3125C68.4792 46.4375 67.6771 46.5 66.9062 46.5C64.6562 46.5 62.7812 45.7604 61.2812 44.2812C59.7812 42.7812 59.0312 40.9583 59.0312 38.8125C59.0312 36.6667 59.6875 34.6875 61 32.875C62.3125 31.0417 63.9479 29.625 65.9062 28.625C67.8854 27.625 69.8333 27.125 71.75 27.125C73.6667 27.125 75.3229 27.5625 76.7188 28.4375C78.1354 29.3125 78.8542 30.4896 78.875 31.9688C78.9167 33.4479 78.4896 34.7292 77.5938 35.8125C76.6979 36.875 75.5625 37.6875 74.1875 38.25C71.4583 39.3542 68.7812 39.9062 66.1562 39.9062L64.8125 39.8438ZM64.625 38.125C66.9375 38.0417 68.7917 37.6771 70.1875 37.0312C71.6042 36.3646 72.5833 35.6146 73.125 34.7812C73.6875 33.9271 73.9688 33.0417 73.9688 32.125C73.9688 31.1875 73.7292 30.5 73.25 30.0625C72.7708 29.6042 72.2604 29.375 71.7188 29.375C70.3854 29.375 69.1562 29.8438 68.0312 30.7812C66.9271 31.6979 66.0833 32.8229 65.5 34.1562C64.9167 35.4688 64.625 36.7917 64.625 38.125ZM105.812 27.8125C103.021 35.25 101.625 39.7604 101.625 41.3438C101.625 42.0104 101.792 42.3438 102.125 42.3438C103.042 42.3438 104.375 41.0104 106.125 38.3438L107.469 39.625C106.365 41.6042 105.052 43.25 103.531 44.5625C102.031 45.8542 100.812 46.5 99.875 46.5C97.9375 46.5 96.9688 45.5208 96.9688 43.5625C96.9688 42.0417 97.3229 40.1875 98.0312 38C98.7396 35.8125 99.0938 34.7083 99.0938 34.6875C98.9896 34.875 98.7396 35.3125 98.3438 36C97.9479 36.6667 97.6562 37.1667 97.4688 37.5C97.2812 37.8333 96.9688 38.3438 96.5312 39.0312C96.1146 39.6979 95.7604 40.2292 95.4688 40.625C95.1979 41 94.8229 41.4896 94.3438 42.0938C93.8854 42.6979 93.4688 43.1771 93.0938 43.5312C92.7396 43.8854 92.3125 44.2812 91.8125 44.7188C91.3125 45.1354 90.8333 45.4583 90.375 45.6875C89.3333 46.2292 88.3125 46.5 87.3125 46.5C84.8333 46.5 83.5938 45.1354 83.5938 42.4062C83.5938 41.1562 84.0417 39.2188 84.9375 36.5938C85.8333 33.9479 86.2812 32.3958 86.2812 31.9375C86.2812 31.4583 86.1354 31.2188 85.8438 31.2188C85.0104 31.2188 83.8542 32.5417 82.375 35.1875L80.3438 33.9688C83.1979 29.4062 85.9479 27.125 88.5938 27.125C89.4688 27.125 90.1667 27.375 90.6875 27.875C91.2083 28.3542 91.4479 29.1042 91.4062 30.125C91.3854 31.125 90.875 32.9271 89.875 35.5312C88.8958 38.1146 88.4062 40.0938 88.4062 41.4688C88.4062 42.2188 88.75 42.5938 89.4375 42.5938C90.2292 42.5938 91.1667 42.0938 92.25 41.0938C93.3542 40.0729 94.4167 38.8333 95.4375 37.375C97.0625 35.0833 98.75 32.3958 100.5 29.3125L101.344 27.8125H105.812ZM126.281 31.2188C125.49 31.2188 124.552 31.7292 123.469 32.75C122.385 33.75 121.333 34.9792 120.312 36.4375C118.688 38.7708 117.031 41.4583 115.344 44.5L114.5 46H110.094C110.094 46 110.417 45.0208 111.062 43.0625C112.875 37.6458 113.781 34.4375 113.781 33.4375C113.781 32.4167 113.615 31.9062 113.281 31.9062C112.677 31.9062 111.958 32.625 111.125 34.0625C110.938 34.3958 110.781 34.6667 110.656 34.875C110.531 35.0625 110.385 35.3021 110.219 35.5938C110.073 35.8646 109.979 36.0312 109.938 36.0938L107.844 34.875C109.469 32.2292 110.958 30.2812 112.312 29.0312C113.667 27.7604 115.052 27.125 116.469 27.125C117.115 27.125 117.667 27.3958 118.125 27.9375C118.604 28.4792 118.844 29.125 118.844 29.875C118.844 30.6042 118.802 31.2604 118.719 31.8438C118.635 32.4062 118.542 32.9271 118.438 33.4062C118.333 33.8854 118.188 34.4583 118 35.125C117.812 35.7917 117.656 36.3021 117.531 36.6562C117.427 37.0104 117.281 37.4896 117.094 38.0938C116.906 38.6979 116.792 39.0521 116.75 39.1562C117.125 38.4062 117.76 37.3021 118.656 35.8438C119.552 34.3854 120.135 33.4688 120.406 33.0938C120.677 32.7188 121.052 32.2188 121.531 31.5938C122.01 30.9688 122.427 30.4896 122.781 30.1562C123.156 29.8021 123.594 29.4062 124.094 28.9688C124.615 28.5104 125.104 28.1667 125.562 27.9375C126.729 27.3958 127.854 27.125 128.938 27.125C130.021 27.125 130.885 27.4479 131.531 28.0938C132.198 28.7188 132.531 29.4583 132.531 30.3125C132.531 31.1458 132.26 31.8854 131.719 32.5312C131.198 33.1562 130.583 33.4688 129.875 33.4688C129.188 33.4688 128.646 33.3542 128.25 33.125C127.854 32.875 127.583 32.6146 127.438 32.3438C127 31.5938 126.615 31.2188 126.281 31.2188Z" fill="url(#paint0_linear_146_38)"/>
<defs>
<linearGradient id="paint0_linear_146_38" x1="74" y1="8.5" x2="74" y2="41.5" gradientUnits="userSpaceOnUse">
<stop stop-color="#EFBAD3"/>
<stop offset="1" stop-color="#AE71EF"/>
</linearGradient>
</defs>
</svg>
